<svg xmlns="http://www.w3.org/2000/svg" data-name="Layer 1" viewBox="0 0 512 512"><rect width="497" height="369" x="7.5" y="71.5" fill="#676e87" rx="30"/><rect width="497" height="219" x="7.5" y="146.5" fill="#fff"/><circle cx="271" cy="256" r="67.5" fill="#cecece"/><circle cx="256" cy="256" r="67.5" fill="#f66"/><path fill="#ff4e4e" d="M256,188.5a67.6619,67.6619,0,0,0-15,1.6936,67.49269,67.49269,0,0,1,0,131.6128A67.49741,67.49741,0,1,0,256,188.5Z"/><path fill="#fff" d="M245.96644,228.72113l37.0139,24.78615a3,3,0,0,1,0,4.98544l-37.0139,24.78615a3,3,0,0,1-4.66924-2.49272v-49.5723A3,3,0,0,1,245.96644,228.72113Z"/><path fill="#272a33" d="M474.5,64H37.5A37.54227,37.54227,0,0,0,0,101.5v309A37.54227,37.54227,0,0,0,37.5,448h437A37.54227,37.54227,0,0,0,512,410.5v-309A37.54227,37.54227,0,0,0,474.5,64ZM313.2002,79h84.3999v60H313.2002Zm-99.4004,0h84.4004v60H213.7998Zm-99.3999,0h84.3999v60H114.3999ZM15,101.5A22.52523,22.52523,0,0,1,37.5,79H99.3999v60H15ZM99.3999,433H37.5A22.52554,22.52554,0,0,1,15,410.5V373H99.3999Zm99.3999,0H114.3999V373h84.3999Zm99.4004,0H213.7998V373h84.4004Zm99.3999,0H313.2002V373h84.3999ZM497,410.5A22.52554,22.52554,0,0,1,474.5,433H412.6001V373H497Zm0-52.5H15V154H497Zm0-219H412.6001V79H474.5A22.52523,22.52523,0,0,1,497,101.5ZM256,331a75,75,0,1,0-75-75A75.08483,75.08483,0,0,0,256,331Zm0-135a60,60,0,1,1-60,60A60.06812,60.06812,0,0,1,256,196Zm-16.64844,94.04785a10.47979,10.47979,0,0,0,10.7876-.53711l37.01514-24.78613a10.50013,10.50013,0,0,0-.001-17.44922l-37.01416-24.78613a10.49946,10.49946,0,0,0-16.3418,8.72461v49.57226A10.48,10.48,0,0,0,239.35156,290.04785Zm9.4458-50.40478L273.22412,256l-24.42676,16.35742Z"/></svg>